HIERARCHY
ROOT Hips
{
    OFFSET 0.000000 0.000000 0.000000
    CHANNELS 6 Xposition Yposition Zposition Zrotation Xrotation Yrotation
    JOINT Spine
    {
        OFFSET -0.000000 14.517291 0.000000
        CHANNELS 3 Zrotation Xrotation Yrotation
        JOINT Spine1
        {
            OFFSET -0.000000 37.558300 0.000000
            CHANNELS 3 Zrotation Xrotation Yrotation
            JOINT Neck
            {
                OFFSET -0.000000 37.404057 3.400369
                CHANNELS 3 Zrotation Xrotation Yrotation
                JOINT Head
                {
                    OFFSET -0.000000 24.785618 -3.540803
                    CHANNELS 3 Zrotation Xrotation Yrotation
                    End Site
                    {
                        OFFSET -0.000000 35.408028 0.000000
                    }
                }
            }
            JOINT LeftShoulder
            {
                OFFSET 6.992933 33.973492 -0.192664
                CHANNELS 3 Zrotation Xrotation Yrotation
                JOINT LeftArm
                {
                    OFFSET 21.527611 0.000000 0.000000
                    CHANNELS 3 Zrotation Xrotation Yrotation
                    JOINT LeftForeArm
                    {
                        OFFSET 56.353916 0.000000 0.000000
                        CHANNELS 3 Zrotation Xrotation Yrotation
                        JOINT LeftHand
                        {
                            OFFSET 47.774071 0.000000 0.000000
                            CHANNELS 3 Zrotation Xrotation Yrotation
                            End Site
                            {
                                OFFSET 26.556021 0.000000 0.000000
                            }
                        }
                    }
                }
            }
            JOINT RightShoulder
            {
                OFFSET -7.065357 33.973492 -0.192664
                CHANNELS 3 Zrotation Xrotation Yrotation
                JOINT RightArm
                {
                    OFFSET -21.527611 0.000000 0.000000
                    CHANNELS 3 Zrotation Xrotation Yrotation
                    JOINT RightForeArm
                    {
                        OFFSET -56.353916 0.000000 0.000000
                        CHANNELS 3 Zrotation Xrotation Yrotation
                        JOINT RightHand
                        {
                            OFFSET -47.774071 0.000000 0.000000
                            CHANNELS 3 Zrotation Xrotation Yrotation
                            End Site
                            {
                                OFFSET -26.556021 0.000000 0.000000
                            }
                        }
                    }
                }
            }
        }
    }
    JOINT LeftUpLeg
    {
        OFFSET 17.704014 0.000000 0.000000
        CHANNELS 3 Zrotation Xrotation Yrotation
        JOINT LeftLeg
        {
            OFFSET -0.000000 -81.181816 0.000000
            CHANNELS 3 Zrotation Xrotation Yrotation
            JOINT LeftFoot
            {
                OFFSET -0.000000 -62.821102 0.000000
                CHANNELS 3 Zrotation Xrotation Yrotation
                JOINT LeftToeBase
                {
                    OFFSET -0.000000 -11.507608 26.556021
                    CHANNELS 3 Zrotation Xrotation Yrotation
                    End Site
                    {
                        OFFSET -0.000000 0.000000 7.081605
                    }
                }
            }
        }
    }
    JOINT RightUpLeg
    {
        OFFSET -17.704014 0.000000 0.000000
        CHANNELS 3 Zrotation Xrotation Yrotation
        JOINT RightLeg
        {
            OFFSET -0.000000 -81.181816 0.000000
            CHANNELS 3 Zrotation Xrotation Yrotation
            JOINT RightFoot
            {
                OFFSET -0.000000 -62.821102 0.000000
                CHANNELS 3 Zrotation Xrotation Yrotation
                JOINT RightToeBase
                {
                    OFFSET -0.000000 -11.507608 26.556021
                    CHANNELS 3 Zrotation Xrotation Yrotation
                    End Site
                    {
                        OFFSET -0.000000 0.000000 7.081605
                    }
                }
            }
        }
    }
}
MOTION
Frames:    9
Frame Time:    0.008333
-15.722114    147.421387    53.687691    3.524131    5.611799    -64.301994    0.411894    2.741223    0.742010    1.558138    1.006313    0.235843    19.805111    4.040481    14.532311    -13.576011    2.901678    11.310625    10.625013    4.274323    -15.529684    -10.803406    -3.780633    -20.635729    13.883302    -0.815276    -53.540348    -0.529911    6.417417    -41.147572    -9.619559    -1.146182    -4.900164    29.559891    -22.741434    43.885967    6.575078    -22.170706    107.577538    15.249937    -26.453590    31.351748    29.812262    -38.395729    8.967996    -26.114092    37.538437    -2.377200    -3.135795    -4.618390    45.424660    0.000000    0.000000    0.000000    -7.714611    -12.325680    -0.851582    4.745670    49.226490    -3.282541    8.112287    -34.944763    -1.758800    0.000000    0.000000    0.000000    
-15.729525    147.430771    53.795944    3.585858    5.657563    -64.353905    0.453033    2.716415    0.697345    1.508122    1.002229    0.221708    19.820646    4.027206    14.577395    -13.587108    2.852266    11.346509    10.659584    4.229703    -15.560281    -10.799476    -3.797942    -20.601231    13.936574    -0.862574    -53.431831    -0.596799    6.406817    -41.284580    -9.613239    -1.238288    -4.876738    29.654682    -22.913294    43.945866    6.536918    -22.286127    107.579178    15.337466    -26.496515    31.346344    29.872215    -38.414448    9.117188    -26.153463    37.568623    -2.352656    -3.053146    -4.662059    45.378963    0.000000    0.000000    0.000000    -7.776062    -12.284349    -0.842934    4.802547    49.010288    -3.247213    8.131166    -34.972282    -1.727306    0.000000    0.000000    0.000000    
-15.741721    147.439621    53.886200    3.627553    5.707129    -64.385506    0.497549    2.717632    0.635417    1.487711    0.981202    0.201822    19.827921    4.014178    14.624306    -13.634272    2.817834    11.382863    10.658360    4.211976    -15.525983    -10.790248    -3.783875    -20.644098    13.946781    -1.012583    -53.359966    -0.665359    6.275414    -40.956558    -9.626956    -1.287637    -4.876889    29.794512    -23.124565    44.054466    6.496594    -22.359226    107.602783    15.266724    -26.543674    31.312098    29.937441    -38.432907    9.224518    -26.198858    37.604103    -2.323486    -2.988582    -4.707540    45.320595    0.000000    0.000000    0.000000    -7.803803    -12.228491    -0.872794    4.781308    48.806549    -3.189118    8.202096    -34.997074    -1.647665    0.000000    0.000000    0.000000    
-15.751161    147.446304    53.963554    3.658278    5.757891    -64.417465    0.533885    2.713230    0.585533    1.503085    0.965881    0.185583    19.782520    4.041365    14.654701    -13.650931    2.735010    11.413115    10.636095    4.199140    -15.523087    -10.785051    -3.821355    -20.691269    13.956347    -1.047971    -53.174000    -0.630457    6.204348    -41.079399    -9.653666    -1.321240    -4.872701    29.940823    -23.349916    44.156132    6.459586    -22.393579    107.610985    15.218516    -26.543301    31.322926    30.013517    -38.449017    9.326029    -26.244417    37.647217    -2.299365    -2.948371    -4.770610    45.264359    0.000000    0.000000    0.000000    -7.813394    -12.183422    -0.845325    4.803275    48.632523    -3.184608    8.223063    -35.011654    -1.606665    0.000000    0.000000    0.000000    
-15.757589    147.457962    54.030884    3.689121    5.811133    -64.447983    0.585344    2.698701    0.542925    1.496069    0.967080    0.171782    19.740412    4.043114    14.673492    -13.656601    2.671716    11.429857    10.628128    4.166873    -15.506773    -10.806910    -3.779916    -20.737103    14.041360    -1.160306    -53.002083    -0.619214    6.106225    -41.240822    -9.660767    -1.365307    -4.889927    30.098967    -23.563520    44.243309    6.444498    -22.417353    107.648514    15.317152    -26.526257    31.336535    30.091026    -38.472771    9.435547    -26.279133    37.693409    -2.285442    -2.915839    -4.819443    45.219170    0.000000    0.000000    0.000000    -7.806946    -12.155834    -0.819161    4.802301    48.481899    -3.156651    8.265328    -35.011791    -1.581220    0.000000    0.000000    0.000000    
-15.766012    147.471649    54.087864    3.716697    5.864518    -64.471794    0.636686    2.678748    0.491084    1.482555    0.981888    0.154814    19.701433    4.013774    14.690655    -13.635789    2.636486    11.445372    10.646347    4.131485    -15.476227    -10.865995    -3.824346    -20.795698    14.045026    -1.233373    -52.902943    -0.709246    6.053886    -41.244812    -9.643888    -1.431730    -4.880293    30.231752    -23.792946    44.288807    6.292304    -22.367914    107.616119    15.028293    -26.362995    31.309614    30.168821    -38.494812    9.514372    -26.329622    37.722549    -2.244958    -2.894198    -4.858663    45.173664    0.000000    0.000000    0.000000    -7.792437    -12.136985    -0.767144    4.833829    48.352722    -3.117937    8.240944    -35.013584    -1.641458    0.000000    0.000000    0.000000    
-15.768925    147.489487    54.140377    3.749230    5.916762    -64.490654    0.690256    2.647907    0.436196    1.469961    1.000043    0.136995    19.642971    3.993991    14.700370    -13.593442    2.578434    11.456962    10.644553    4.111097    -15.447196    -10.905468    -3.839408    -20.855093    14.042017    -1.344462    -52.843010    -0.775798    5.956285    -41.086838    -9.633935    -1.473461    -4.884306    30.399931    -24.001020    44.348488    6.243621    -22.357239    107.659248    15.032928    -26.297432    31.307617    30.233927    -38.527195    9.566846    -26.365400    37.748619    -2.257401    -2.883413    -4.895397    45.180641    0.000000    0.000000    0.000000    -7.778963    -12.130310    -0.711534    4.884174    48.234680    -3.127798    8.240008    -34.996624    -1.690426    0.000000    0.000000    0.000000    
-15.775434    147.507019    54.192932    3.774429    5.944496    -64.521034    0.739317    2.628371    0.393128    1.419503    1.018611    0.123149    19.584944    3.926646    14.701273    -13.484865    2.575474    11.465214    10.670372    4.089177    -15.406113    -10.954695    -3.802140    -20.930534    14.113582    -1.474258    -52.763435    -0.861889    5.882954    -41.071644    -9.583689    -1.518513    -4.884428    30.547150    -24.197514    44.375626    6.251629    -22.319122    107.745827    15.010777    -26.291536    31.281933    30.278372    -38.535816    9.594326    -26.423035    37.756901    -2.243492    -2.879764    -4.937128    45.215179    0.000000    0.000000    0.000000    -7.779872    -12.118558    -0.630072    4.936867    48.139381    -3.134696    8.215415    -34.984936    -1.747306    0.000000    0.000000    0.000000    
-15.783609    147.527832    54.245140    3.795151    5.962607    -64.549820    0.777598    2.608186    0.362717    1.388238    1.035075    0.113140    19.521692    3.871378    14.694490    -13.394558    2.565659    11.465251    10.676002    4.066945    -15.390436    -11.001968    -3.748521    -20.985704    14.203638    -1.583941    -52.692051    -0.885152    5.816927    -41.093529    -9.543868    -1.546909    -4.898355    30.681353    -24.377459    44.378334    6.230469    -22.305384    107.830788    15.001944    -26.272213    31.233318    30.300661    -38.533989    9.604109    -26.460764    37.760448    -2.263433    -2.862801    -4.971694    45.264030    0.000000    0.000000    0.000000    -7.789824    -12.096772    -0.532474    5.024120    48.038239    -3.193669    8.188683    -34.970997    -1.798117    0.000000    0.000000    0.000000    
